<?xml version="1.0" encoding="UTF-8"?>
<svg version="1.1" xmlns="http://www.w3.org/2000/svg" width="230" height="70">
<path d="M0 0 C1.20527344 -0.01675781 2.41054687 -0.03351562 3.65234375 -0.05078125 C7.57959493 0.36758571 10.24966345 1.49966345 13.0625 4.3125 C13.10330783 6.31208364 13.10504356 8.31295254 13.0625 10.3125 C11.0825 10.3125 9.1025 10.3125 7.0625 10.3125 C6.7325 9.3225 6.4025 8.3325 6.0625 7.3125 C2.1025 6.9825 -1.8575 6.6525 -5.9375 6.3125 C-5.958125 7.776875 -5.97875 9.24125 -6 10.75 C-6.01160156 11.57371094 -6.02320313 12.39742187 -6.03515625 13.24609375 C-6.17017348 15.30413938 -6.17017348 15.30413938 -4.9375 16.3125 C-3.08462498 16.38476502 -1.22916122 16.3963122 0.625 16.375 C1.63691406 16.36597656 2.64882812 16.35695313 3.69140625 16.34765625 C4.47386719 16.33605469 5.25632813 16.32445313 6.0625 16.3125 C6.3925 15.3225 6.7225 14.3325 7.0625 13.3125 C9.3725 13.3125 11.6825 13.3125 14.0625 13.3125 C13.93875 11.7346875 13.93875 11.7346875 13.8125 10.125 C14.10044446 5.73384701 14.95277405 4.33337664 18.0625 1.3125 C21.50915742 0.16361419 24.30601905 0.1085653 27.9375 0.0625 C29.15179688 0.03671875 30.36609375 0.0109375 31.6171875 -0.015625 C35.33058278 0.33803169 37.12724277 1.06108406 40.0625 3.3125 C42.35250466 6.74750699 42.35998064 8.19978019 42.375 12.25 C42.39175781 13.29027344 42.40851563 14.33054687 42.42578125 15.40234375 C42.016387 18.68189981 41.41783621 20.02096523 39.0625 22.3125 C35.73721064 23.68772908 32.18411223 23.4794271 28.625 23.5 C26.95630859 23.52126953 26.95630859 23.52126953 25.25390625 23.54296875 C20.94005338 23.23144204 18.13530372 22.38530372 15.0625 19.3125 C15.0625 18.3225 15.0625 17.3325 15.0625 16.3125 C14.4025 16.3125 13.7425 16.3125 13.0625 16.3125 C12.98 17.09625 12.8975 17.88 12.8125 18.6875 C12.0625 21.3125 12.0625 21.3125 10.44921875 22.4609375 C7.26444347 23.5972403 4.50133321 23.57691338 1.125 23.5625 C-0.08027344 23.56765625 -1.28554687 23.5728125 -2.52734375 23.578125 C-6.90454293 23.23717478 -9.81490271 22.58993829 -12.75 19.25 C-14.39092958 15.19085841 -14.51795205 11.63451459 -13.9375 7.3125 C-12.71679045 4.44383256 -11.85247752 2.91821939 -9.26171875 1.203125 C-6.10939734 -0.00482337 -3.36898137 0.01078649 0 0 Z M21.0625 8.3125 C25.6825 8.3125 30.3025 8.3125 35.0625 8.3125 C33.25650239 6.09197138 33.25650239 6.09197138 30.75 6.046875 C29.4196875 6.05460937 29.4196875 6.05460937 28.0625 6.0625 C27.175625 6.05734375 26.28875 6.0521875 25.375 6.046875 C22.86849761 6.09197138 22.86849761 6.09197138 21.0625 8.3125 Z M21.0625 14.3125 C21.0625 14.9725 21.0625 15.6325 21.0625 16.3125 C23.65708106 17.60979053 25.66697598 17.5167812 28.5625 17.5625 C29.5421875 17.58828125 30.521875 17.6140625 31.53125 17.640625 C32.3665625 17.53234375 33.201875 17.4240625 34.0625 17.3125 C34.7225 16.3225 35.3825 15.3325 36.0625 14.3125 C31.1125 14.3125 26.1625 14.3125 21.0625 14.3125 Z " fill="#353792" transform="translate(180.9375,24.6875)"/>
<path d="M0 0 C1.20269531 -0.02578125 2.40539062 -0.0515625 3.64453125 -0.078125 C7.51269675 0.28011745 9.89606566 1.22298812 13.1875 3.25 C14.59353618 6.06207235 14.43307505 8.49009466 14.5 11.625 C14.53738281 12.76710938 14.57476562 13.90921875 14.61328125 15.0859375 C14.1875 18.25 14.1875 18.25 12.35546875 20.6015625 C8.47511182 23.55203209 5.0468041 23.41247725 0.3125 23.4375 C-0.90179688 23.45167969 -2.11609375 23.46585938 -3.3671875 23.48046875 C-6.70957558 23.25688497 -8.87968215 22.83203973 -11.8125 21.25 C-14.16740728 17.71763908 -14.13993705 16.00279632 -14.1875 11.8125 C-14.21585938 10.67941406 -14.24421875 9.54632813 -14.2734375 8.37890625 C-13.72072631 4.62702774 -12.78727854 3.52135618 -9.8125 1.25 C-6.38258462 0.10669487 -3.6138584 0.04618349 0 0 Z M-5.8125 6.25 C-8.20048682 9.15585687 -8.20048682 9.15585687 -7.5 12.875 C-7.17136877 16.07504312 -7.17136877 16.07504312 -5.8125 17.25 C-3.83630553 17.37514928 -1.85511827 17.4257276 0.125 17.4375 C1.20652344 17.45167969 2.28804687 17.46585938 3.40234375 17.48046875 C6.32794315 17.54048031 6.32794315 17.54048031 8.1875 15.25 C8.52083333 11.75 8.52083333 11.75 8.1875 8.25 C5.48671247 5.54921247 3.94714828 5.95105642 0.1875 5.9375 C-1.42125 5.91236328 -1.42125 5.91236328 -3.0625 5.88671875 C-3.97 6.00660156 -4.8775 6.12648438 -5.8125 6.25 Z " fill="#353792" transform="translate(143.8125,24.75)"/>
<path d="M0 0 C5.0428125 -0.0928125 5.0428125 -0.0928125 10.1875 -0.1875 C11.76374146 -0.22846802 11.76374146 -0.22846802 13.37182617 -0.27026367 C22.22916777 -0.3492485 22.22916777 -0.3492485 26 3 C26.90238747 5.70716242 27.11851302 7.23776768 27.09765625 10.01171875 C27.09443359 10.76904297 27.09121094 11.52636719 27.08789062 12.30664062 C27.07951172 13.09232422 27.07113281 13.87800781 27.0625 14.6875 C27.05798828 15.48478516 27.05347656 16.28207031 27.04882812 17.10351562 C27.0370585 19.06904257 27.01912348 21.03453085 27 23 C25.02 23 23.04 23 21 23 C20.93941406 22.09636719 20.87882812 21.19273438 20.81640625 20.26171875 C20.73261719 19.08222656 20.64882812 17.90273438 20.5625 16.6875 C20.48128906 15.51574219 20.40007812 14.34398437 20.31640625 13.13671875 C20.1132629 9.97409042 20.1132629 9.97409042 19 7 C17.37509046 6.97301811 15.75005367 6.95361243 14.125 6.9375 C13.22007813 6.92589844 12.31515625 6.91429687 11.3828125 6.90234375 C8.9831415 6.83750743 8.9831415 6.83750743 7 8 C6.68758629 10.54941373 6.48696579 13.00361513 6.375 15.5625 C6.33632812 16.27341797 6.29765625 16.98433594 6.2578125 17.71679688 C6.16328217 19.47742425 6.08054183 21.23867728 6 23 C4.02 23 2.04 23 0 23 C0 15.41 0 7.82 0 0 Z " fill="#353792" transform="translate(75,25)"/>
<path d="M0 0 C1.65 0.33 3.3 0.66 5 1 C5 5.98027627 3.00407174 8.02172057 0 11.6875 C-3.2785242 15.09353755 -3.2785242 15.09353755 -5 19 C-0.57335436 19.30495485 -0.57335436 19.30495485 3.375 17.5 C3.91125 17.005 4.4475 16.51 5 16 C6.32 16.66 7.64 17.32 9 18 C8.34 19.98 7.68 21.96 7 24 C7.68707031 23.97679688 8.37414062 23.95359375 9.08203125 23.9296875 C10.43361328 23.90261719 10.43361328 23.90261719 11.8125 23.875 C12.70582031 23.85179688 13.59914063 23.82859375 14.51953125 23.8046875 C17 24 17 24 20 26 C20 26.66 20 27.32 20 28 C14.77600474 29.74133175 10.51869736 30.54282269 5 30 C3.66666667 28.66666667 2.33333333 27.33333333 1 26 C-1.13824825 25.57161196 -1.13824825 25.57161196 -3.5 25.4375 C-6.31410755 25.22423979 -7.96794204 25.01485613 -10.5625 23.8125 C-12 22 -12 22 -12.46484375 19.41015625 C-11.78391217 14.4147506 -9.09973492 11.48570588 -6 7.625 C-5.42765625 6.88894531 -4.8553125 6.15289062 -4.265625 5.39453125 C-2.8562851 3.58587838 -1.4345203 1.78869929 0 0 Z " fill="#353792" transform="translate(26,31)"/>
<path d="M0 0 C1.5 1.625 1.5 1.625 1.5 3.625 C2.10328125 3.59019531 2.7065625 3.55539063 3.328125 3.51953125 C9.76328924 3.30156601 9.76328924 3.30156601 13.0625 4.75 C15.20480825 7.54431511 14.94350809 9.15017516 14.5 12.625 C12.99015282 15.28218428 11.09687415 17.54818851 9.125 19.875 C8.36316406 20.81085937 8.36316406 20.81085937 7.5859375 21.765625 C5.63177549 24.15175966 3.68211757 26.44288243 1.5 28.625 C-0.625 28.25 -0.625 28.25 -2.5 27.625 C-2.5 22.64472373 -0.50407174 20.60327943 2.5 16.9375 C5.7785242 13.53146245 5.7785242 13.53146245 7.5 9.625 C3.07335436 9.32004515 3.07335436 9.32004515 -0.875 11.125 C-1.679375 11.8675 -1.679375 11.8675 -2.5 12.625 C-3.82 11.965 -5.14 11.305 -6.5 10.625 C-5.84 8.645 -5.18 6.665 -4.5 4.625 C-5.53060547 4.65980469 -5.53060547 4.65980469 -6.58203125 4.6953125 C-7.93361328 4.72238281 -7.93361328 4.72238281 -9.3125 4.75 C-10.20582031 4.77320313 -11.09914063 4.79640625 -12.01953125 4.8203125 C-14.5 4.625 -14.5 4.625 -17.5 2.625 C-17.5 1.965 -17.5 1.305 -17.5 0.625 C-11.73622133 -1.29625956 -5.65120991 -3.10816545 0 0 Z " fill="#F4130D" transform="translate(38.5,7.375)"/>
<path d="M0 0 C0.66 0 1.32 0 2 0 C3.43306992 5.1053116 4.61697478 9.65288525 4 15 C3.360625 15.61875 2.72125 16.2375 2.0625 16.875 C-0.36238106 19.3733623 -0.28669347 20.14178955 -0.5 23.5 C-0.7332955 26.7184174 -0.87473587 27.81657752 -2.75 30.5625 C-5.60347838 32.38555563 -6.64475664 32.50468842 -10 32 C-12.57745732 30.47246418 -14.82854782 28.60443324 -17.125 26.6875 C-17.74503906 26.18798828 -18.36507812 25.68847656 -19.00390625 25.17382812 C-21.80948101 22.8961841 -24.47221986 20.58611352 -27 18 C-26.01 16.68 -25.02 15.36 -24 14 C-19.64815742 15.44531998 -16.72620646 17.66552694 -13.25 20.625 C-10.45513772 23.46057793 -10.45513772 23.46057793 -7 25 C-6.69504515 20.57335436 -6.69504515 20.57335436 -8.5 16.625 C-8.995 16.08875 -9.49 15.5525 -10 15 C-9.34 13.68 -8.68 12.36 -8 11 C-7.195625 11.185625 -6.39125 11.37125 -5.5625 11.5625 C-4.716875 11.706875 -3.87125 11.85125 -3 12 C-2.67 11.67 -2.34 11.34 -2 11 C-2.03222338 9.00215071 -2.06809043 7.00379947 -2.16015625 5.0078125 C-2 3 -2 3 0 0 Z " fill="#353792" transform="translate(57,21)"/>
<path d="M0 0 C2.57751441 1.52741595 4.82856128 3.39557799 7.125 5.3125 C7.74503906 5.81201172 8.36507813 6.31152344 9.00390625 6.82617188 C11.80948101 9.1038159 14.47221986 11.41388648 17 14 C16.01 15.32 15.02 16.64 14 18 C9.64815742 16.55468002 6.72620646 14.33447306 3.25 11.375 C0.45513772 8.53942207 0.45513772 8.53942207 -3 7 C-3.31678207 11.64613708 -2.77482856 13.3806584 0 17 C-0.3125 19.25 -0.3125 19.25 -1 21 C-1.969375 20.814375 -2.93875 20.62875 -3.9375 20.4375 C-4.948125 20.293125 -5.95875 20.14875 -7 20 C-8.23267348 21.00836062 -8.23267348 21.00836062 -8.09765625 23.06640625 C-8.08605469 23.89011719 -8.07445312 24.71382812 -8.0625 25.5625 C-8.05347656 26.38878906 -8.04445313 27.21507813 -8.03515625 28.06640625 C-8.02355469 28.70449219 -8.01195312 29.34257813 -8 30 C-9.98 30.99 -9.98 30.99 -12 32 C-13.44624241 26.84776142 -14.42395327 22.40540418 -14 17 C-13.01 15.515 -13.01 15.515 -12 14 C-11.01 14 -10.02 14 -9 14 C-9.04640625 13.32453125 -9.0928125 12.6490625 -9.140625 11.953125 C-9.43504532 4.67673716 -9.43504532 4.67673716 -7.3125 1.375 C-4.42018417 -0.34475536 -3.3363325 -0.49789062 0 0 Z " fill="#353792" transform="translate(20,14)"/>
<path d="M0 0 C2.64 0 5.28 0 8 0 C8.48210937 0.92683594 8.96421875 1.85367187 9.4609375 2.80859375 C10.0986582 4.01838743 10.73669548 5.22801426 11.375 6.4375 C11.69210938 7.04916016 12.00921875 7.66082031 12.3359375 8.29101562 C14.02304299 11.75238344 14.02304299 11.75238344 17 14 C17.3403125 13.0409375 17.3403125 13.0409375 17.6875 12.0625 C19.48565826 7.86679739 21.73904021 3.96099444 24 0 C26.31 0 28.62 0 31 0 C30.11143052 5.53881055 27.66231297 9.55530233 24.8125 14.3125 C24.34263672 15.14845703 23.87277344 15.98441406 23.38867188 16.84570312 C19.85608509 22.74941228 19.85608509 22.74941228 15.890625 23.91015625 C11.83477752 22.63311238 11.0016866 20.79560697 8.9375 17.125 C8.60169922 16.54016846 8.26589844 15.95533691 7.91992188 15.3527832 C5.07835631 10.3425468 2.44784106 5.21343071 0 0 Z " fill="#353792" transform="translate(100,25)"/>
<path d="M0 0 C0.66 0 1.32 0 2 0 C2.33 1.98 2.66 3.96 3 6 C3.33 5.01 3.66 4.02 4 3 C5.98 3 7.96 3 10 3 C11.125 6.75 11.125 6.75 10 9 C9.01 9 8.02 9 7 9 C7 9.66 7 10.32 7 11 C1.06 11 -4.88 11 -11 11 C-11.33 10.01 -11.66 9.02 -12 8 C-12.99 8.33 -13.98 8.66 -15 9 C-15 9.66 -15 10.32 -15 11 C-15.99 11 -16.98 11 -18 11 C-18 8.36 -18 5.72 -18 3 C-13.38 3 -8.76 3 -4 3 C-3.67 3.99 -3.34 4.98 -3 6 C-2.690625 5.195625 -2.38125 4.39125 -2.0625 3.5625 C-1 1 -1 1 0 0 Z " fill="#F6120E" transform="translate(112,50)"/>
<path d="M0 0 C1.98 0 3.96 0 6 0 C6 9.9 6 19.8 6 30 C4.02 30 2.04 30 0 30 C0 20.1 0 10.2 0 0 Z " fill="#353792" transform="translate(160,18)"/>
<path d="M0 0 C1.98 0 3.96 0 6 0 C6 9.9 6 19.8 6 30 C4.02 30 2.04 30 0 30 C0 20.1 0 10.2 0 0 Z " fill="#353792" transform="translate(67,18)"/>
<path d="M0 0 C0.09765625 6.15234375 0.09765625 6.15234375 0 8 C-1 9 -1 9 -3.875 9.0625 C-5.421875 9.0315625 -5.421875 9.0315625 -7 9 C-7.99 9 -8.98 9 -10 9 C-12 9 -14 9 -16 9 C-16 6.36 -16 3.72 -16 1 C-13 1 -10 1 -7 1 C-1.875 0 -1.875 0 0 0 Z M-5 4 C-5 4.66 -5 5.32 -5 6 C-4.34 6 -3.68 6 -3 6 C-3 5.34 -3 4.68 -3 4 C-3.66 4 -4.32 4 -5 4 Z " fill="#F6120E" transform="translate(170,52)"/>
<path d="M0 0 C0.99 2.31 1.98 4.62 3 7 C3.66 5.68 4.32 4.36 5 3 C5.99 3 6.98 3 8 3 C9.25664978 5.90600261 10 7.79604584 10 11 C7.52076199 11.02685095 5.0418116 11.04676547 2.5625 11.0625 C1.85544922 11.07087891 1.14839844 11.07925781 0.41992188 11.08789062 C-1.38693559 11.09653588 -3.19387603 11.05220011 -5 11 C-6 10 -6 10 -6.3125 7.1875 C-6 4 -6 4 -4.125 1.625 C-2 0 -2 0 0 0 Z M-3 6 C-3 6.66 -3 7.32 -3 8 C-2.34 8 -1.68 8 -1 8 C-1 7.34 -1 6.68 -1 6 C-1.66 6 -2.32 6 -3 6 Z " fill="#F6120E" transform="translate(140,50)"/>
<path d="M0 0 C0.99 0.33 1.98 0.66 3 1 C3.33 2.65 3.66 4.3 4 6 C4.33 5.01 4.66 4.02 5 3 C5.99 3 6.98 3 8 3 C8 5.64 8 8.28 8 11 C3.38 11 -1.24 11 -6 11 C-6 8.36 -6 5.72 -6 3 C-5.01 3 -4.02 3 -3 3 C-2.67 3.99 -2.34 4.98 -2 6 C-1.34 4.02 -0.68 2.04 0 0 Z " fill="#F6120E" transform="translate(82,50)"/>
<path d="M0 0 C0.99 0 1.98 0 3 0 C3.33 0.66 3.66 1.32 4 2 C4.66 2 5.32 2 6 2 C5.125 9.875 5.125 9.875 4 11 C2.33382885 11.04063832 0.66611905 11.042721 -1 11 C-1.33 10.34 -1.66 9.68 -2 9 C-2.33 9.66 -2.66 10.32 -3 11 C-3.99 11 -4.98 11 -6 11 C-6.33 8.36 -6.66 5.72 -7 3 C-3.535 2.505 -3.535 2.505 0 2 C0 1.34 0 0.68 0 0 Z M1 3 C1 4.65 1 6.3 1 8 C1.33 8 1.66 8 2 8 C2 6.35 2 4.7 2 3 C1.67 3 1.34 3 1 3 Z " fill="#F6120E" transform="translate(217,50)"/>
<path d="M0 0 C0.02708567 1.60407328 0.04643483 3.2082785 0.0625 4.8125 C0.07410156 5.70582031 0.08570313 6.59914063 0.09765625 7.51953125 C0 10 0 10 -1 13 C-1.66 13 -2.32 13 -3 13 C-3 12.01 -3 11.02 -3 10 C-4.65 10 -6.3 10 -8 10 C-8 7.36 -8 4.72 -8 2 C-4.91190305 0.23537317 -3.76687864 0 0 0 Z " fill="#F6120E" transform="translate(198,51)"/>
<path d="M0 0 C3 0.125 3 0.125 4 1.125 C4.125 4.125 4.125 4.125 4 7.125 C3 8.125 3 8.125 0 8.25 C-3 8.125 -3 8.125 -4 7.125 C-4.125 4.125 -4.125 4.125 -4 1.125 C-3 0.125 -3 0.125 0 0 Z " fill="#F6120E" transform="translate(71,52.875)"/>
<path d="M0 0 C1.99954746 -0.04254356 4.00041636 -0.04080783 6 0 C7 1 7 1 7.125 4 C7 7 7 7 6 8 C4.00041636 8.04080783 1.99954746 8.04254356 0 8 C0 5.36 0 2.72 0 0 Z " fill="#F6120E" transform="translate(182,53)"/>
<path d="M0 0 C2.31 0 4.62 0 7 0 C7 2.64 7 5.28 7 8 C4.69 8 2.38 8 0 8 C0 5.36 0 2.72 0 0 Z " fill="#F6120E" transform="translate(199,53)"/>
<path d="M0 0 C2.31 0 4.62 0 7 0 C7 2.64 7 5.28 7 8 C6.401875 7.814375 5.80375 7.62875 5.1875 7.4375 C2.83591238 6.77906313 2.83591238 6.77906313 0 8 C0 5.36 0 2.72 0 0 Z " fill="#F6120E" transform="translate(171,53)"/>
<path d="M0 0 C0.99 0 1.98 0 3 0 C3 0.99 3 1.98 3 3 C3.66 3 4.32 3 5 3 C5 2.01 5 1.02 5 0 C5.66 0 6.32 0 7 0 C7 2.64 7 5.28 7 8 C6.34 8 5.68 8 5 8 C5 7.01 5 6.02 5 5 C4.34 5 3.68 5 3 5 C3 5.99 3 6.98 3 8 C2.01 8 1.02 8 0 8 C0 5.36 0 2.72 0 0 Z " fill="#F6120E" transform="translate(126,53)"/>
</svg>
